<?xml version="1.0" encoding="UTF-8"?>
<!DOCTYPE svg PUBLIC "-//W3C//DTD SVG 1.1//EN" "http://www.w3.org/Graphics/SVG/1.1/DTD/svg11.dtd">
<svg xmlns="http://www.w3.org/2000/svg" version="1.1" width="244px" height="244px" style="shape-rendering:geometricPrecision; text-rendering:geometricPrecision; image-rendering:optimizeQuality; fill-rule:evenodd; clip-rule:evenodd" xmlns:xlink="http://www.w3.org/1999/xlink">
<g><path style="opacity:0.997" fill="#ae86d5" d="M 139.5,12.5 C 142.261,25.1618 145.095,37.8285 148,50.5C 150.219,52.7196 152.719,54.5529 155.5,56C 161.223,56.2228 166.89,55.7228 172.5,54.5C 171.68,49.4956 173.18,49.1623 177,53.5C 177.671,52.7476 178.504,52.4142 179.5,52.5C 180.238,55.7312 180.238,58.7312 179.5,61.5C 178.127,61.6567 176.793,61.49 175.5,61C 174.328,58.9451 172.661,58.2784 170.5,59C 171.672,59.4186 172.672,60.0853 173.5,61C 167.177,60.8963 160.844,60.2296 154.5,59C 152.321,58.5581 151.655,57.5581 152.5,56C 148.246,52.7401 143.746,49.9068 139,47.5C 133.951,51.7198 129.784,56.7198 126.5,62.5C 122.197,68.437 116.363,71.437 109,71.5C 104.512,70.6671 100.012,70.5005 95.5,71C 94.9558,71.7172 94.2891,72.2172 93.5,72.5C 87.9996,58.2825 89.3329,44.6159 97.5,31.5C 103.4,23.64 110.066,18.14 117.5,15C 124.636,11.7197 131.969,10.8864 139.5,12.5 Z"/></g>
<g><path style="opacity:1" fill="#bfa7db" d="M 160.5,20.5 C 162.411,20.5743 163.578,21.5743 164,23.5C 165.364,22.7417 166.531,23.2417 167.5,25C 167.167,25.3333 166.833,25.6667 166.5,26C 168.497,27.1932 170.164,28.6932 171.5,30.5C 170.616,33.0232 169.782,35.6898 169,38.5C 167.786,40.0488 166.286,41.2155 164.5,42C 165.5,42.3333 166.5,42.6667 167.5,43C 164.603,44.7155 163.269,47.2155 163.5,50.5C 155.026,50.8665 151.359,47.0332 152.5,39C 150.573,33.1674 150.406,27.334 152,21.5C 154.719,20.5562 157.552,20.2229 160.5,20.5 Z"/></g>
<g><path style="opacity:1" fill="#bc9edb" d="M 110.5,35.5 C 119.151,34.8164 123.818,38.8164 124.5,47.5C 123.706,56.1159 119.206,61.4492 111,63.5C 103.867,62.1951 100.034,57.8617 99.5,50.5C 100.949,43.7383 104.616,38.7383 110.5,35.5 Z"/></g>
<g><path style="opacity:1" fill="#b394d7" d="M 160.5,20.5 C 157.552,20.2229 154.719,20.5562 152,21.5C 150.406,27.334 150.573,33.1674 152.5,39C 151.359,47.0332 155.026,50.8665 163.5,50.5C 163.269,47.2155 164.603,44.7155 167.5,43C 166.5,42.6667 165.5,42.3333 164.5,42C 166.286,41.2155 167.786,40.0488 169,38.5C 169.782,35.6898 170.616,33.0232 171.5,30.5C 176.283,36.7939 178.95,44.1272 179.5,52.5C 178.504,52.4142 177.671,52.7476 177,53.5C 173.18,49.1623 171.68,49.4956 172.5,54.5C 166.89,55.7228 161.223,56.2228 155.5,56C 152.719,54.5529 150.219,52.7196 148,50.5C 145.095,37.8285 142.261,25.1618 139.5,12.5C 142.033,11.8816 144.699,12.0483 147.5,13C 151.2,13.9326 154.366,15.7659 157,18.5C 158.785,17.6462 159.951,18.3129 160.5,20.5 Z"/></g>
<g><path style="opacity:1" fill="#996ec6" d="M 179.5,61.5 C 179.249,66.7833 177.583,71.7833 174.5,76.5C 171.252,73.5006 167.585,71.0006 163.5,69C 156.542,67.936 149.542,67.2694 142.5,67C 145.471,66.2057 148.471,65.539 151.5,65C 146.442,64.3388 141.442,64.6721 136.5,66C 128.24,75.2948 117.906,79.2948 105.5,78C 107.167,77.6667 108.833,77.3333 110.5,77C 105.483,75.8532 101.15,77.0198 97.5,80.5C 95.6567,78.1469 94.3234,75.4802 93.5,72.5C 94.2891,72.2172 94.9558,71.7172 95.5,71C 100.012,70.5005 104.512,70.6671 109,71.5C 116.363,71.437 122.197,68.437 126.5,62.5C 129.784,56.7198 133.951,51.7198 139,47.5C 143.746,49.9068 148.246,52.7401 152.5,56C 151.655,57.5581 152.321,58.5581 154.5,59C 160.844,60.2296 167.177,60.8963 173.5,61C 172.672,60.0853 171.672,59.4186 170.5,59C 172.661,58.2784 174.328,58.9451 175.5,61C 176.793,61.49 178.127,61.6567 179.5,61.5 Z"/></g>
<g><path style="opacity:1" fill="#7b4ead" d="M 174.5,76.5 C 173.752,78.3325 172.752,79.9991 171.5,81.5C 170.312,82.6843 169.145,82.6843 168,81.5C 166.938,82.8993 165.605,83.8993 164,84.5C 162.56,83.3929 161.06,83.3929 159.5,84.5C 155.783,83.1514 152.116,81.818 148.5,80.5C 141.996,81.2791 135.663,82.7791 129.5,85C 124.467,85.728 119.467,85.5614 114.5,84.5C 110.713,84.9349 107.379,86.2683 104.5,88.5C 101.715,86.2894 99.3819,83.6227 97.5,80.5C 101.15,77.0198 105.483,75.8532 110.5,77C 108.833,77.3333 107.167,77.6667 105.5,78C 117.906,79.2948 128.24,75.2948 136.5,66C 141.442,64.6721 146.442,64.3388 151.5,65C 148.471,65.539 145.471,66.2057 142.5,67C 149.542,67.2694 156.542,67.936 163.5,69C 167.585,71.0006 171.252,73.5006 174.5,76.5 Z"/></g>
<g><path style="opacity:1" fill="#6d348b" d="M 171.5,81.5 C 168.188,86.1455 164.188,90.1455 159.5,93.5C 157.311,92.4384 154.978,91.7717 152.5,91.5C 139.771,92.6342 127.105,93.9675 114.5,95.5C 110.611,93.9423 107.278,91.6089 104.5,88.5C 107.379,86.2683 110.713,84.9349 114.5,84.5C 119.467,85.5614 124.467,85.728 129.5,85C 135.663,82.7791 141.996,81.2791 148.5,80.5C 152.116,81.818 155.783,83.1514 159.5,84.5C 161.06,83.3929 162.56,83.3929 164,84.5C 165.605,83.8993 166.938,82.8993 168,81.5C 169.145,82.6843 170.312,82.6843 171.5,81.5 Z"/></g>
<g><path style="opacity:1" fill="#a67bce" d="M 75.5,74.5 C 75.9371,76.0744 76.9371,77.2411 78.5,78C 78.1667,78.3333 77.8333,78.6667 77.5,79C 79.1667,79.3333 80.8333,79.6667 82.5,80C 77.1667,80.3333 71.8333,80.6667 66.5,81C 64.2852,81.1705 62.2852,81.8372 60.5,83C 67.315,83.2238 73.9816,84.2238 80.5,86C 77.5,86.3333 74.5,86.6667 71.5,87C 72.1667,88 72.8333,89 73.5,90C 73.2716,90.3988 72.9382,90.5654 72.5,90.5C 72.1667,90.5 71.8333,90.5 71.5,90.5C 69.1667,90.5 66.8333,90.5 64.5,90.5C 64.5,99.1667 64.5,107.833 64.5,116.5C 55.8333,116.5 47.1667,116.5 38.5,116.5C 38.5,119.167 38.5,121.833 38.5,124.5C 36.9277,122.056 35.4277,119.39 34,116.5C 30.8666,122.912 30.6999,129.412 33.5,136C 33.3893,137.722 32.8893,137.888 32,136.5C 28.5062,126.416 28.6728,116.416 32.5,106.5C 32.1543,105.304 31.6543,105.304 31,106.5C 29.0626,110.646 27.7293,114.979 27,119.5C 27.383,127.664 27.2163,135.664 26.5,143.5C 14.6519,113.918 23.1519,91.5846 52,76.5C 52.3333,76.8333 52.6667,77.1667 53,77.5C 54.0793,75.6063 55.4126,75.273 57,76.5C 59.6588,75.0654 62.4921,74.0654 65.5,73.5C 68.7965,73.2411 72.1299,73.5745 75.5,74.5 Z"/></g>
<g><path style="opacity:1" fill="#842161" d="M 159.5,93.5 C 156.346,95.3377 153.18,97.3377 150,99.5C 146.879,99.2285 143.713,99.8952 140.5,101.5C 131.2,102.342 122.533,100.342 114.5,95.5C 127.105,93.9675 139.771,92.6342 152.5,91.5C 154.978,91.7717 157.311,92.4384 159.5,93.5 Z"/></g>
<g><path style="opacity:1" fill="#dcc671" d="M 71.5,90.5 C 71.5,99.5 71.5,108.5 71.5,117.5C 80.1667,117.5 88.8333,117.5 97.5,117.5C 97.5,119.833 97.5,122.167 97.5,124.5C 88.8333,124.5 80.1667,124.5 71.5,124.5C 71.5,132.833 71.5,141.167 71.5,149.5C 69.1667,149.5 66.8333,149.5 64.5,149.5C 64.5,141.167 64.5,132.833 64.5,124.5C 55.8333,124.5 47.1667,124.5 38.5,124.5C 38.5,121.833 38.5,119.167 38.5,116.5C 47.1667,116.5 55.8333,116.5 64.5,116.5C 64.5,107.833 64.5,99.1667 64.5,90.5C 66.8333,90.5 69.1667,90.5 71.5,90.5 Z"/></g>
<g><path style="opacity:1" fill="#ec8ba8" d="M 169.5,106.5 C 178.144,105.764 183.144,110.097 184.5,119.5C 184.376,121.951 184.042,124.451 183.5,127C 185.62,128.523 185.953,130.356 184.5,132.5C 185.954,136.507 186.287,140.507 185.5,144.5C 185.279,147.097 184.779,147.097 184,144.5C 183.752,139.437 183.085,134.437 182,129.5C 181.667,130.833 181.333,132.167 181,133.5C 180.501,129.179 180.334,124.846 180.5,120.5C 179.448,120.649 178.448,120.483 177.5,120C 175.964,118.04 174.131,116.54 172,115.5C 164.799,114.73 157.632,113.73 150.5,112.5C 158.189,111.652 165.856,110.652 173.5,109.5C 171.668,108.943 170.335,107.943 169.5,106.5 Z"/></g>
<g><path style="opacity:1" fill="#b58b9a" d="M 71.5,90.5 C 71.8333,90.5 72.1667,90.5 72.5,90.5C 72.5,99.1667 72.5,107.833 72.5,116.5C 81.0168,116.174 89.3501,116.507 97.5,117.5C 88.8333,117.5 80.1667,117.5 71.5,117.5C 71.5,108.5 71.5,99.5 71.5,90.5 Z"/></g>
<g><path style="opacity:1" fill="#e16e91" d="M 113.5,106.5 C 132.27,106.584 150.937,106.584 169.5,106.5C 170.335,107.943 171.668,108.943 173.5,109.5C 165.856,110.652 158.189,111.652 150.5,112.5C 157.632,113.73 164.799,114.73 172,115.5C 174.131,116.54 175.964,118.04 177.5,120C 178.448,120.483 179.448,120.649 180.5,120.5C 180.334,124.846 180.501,129.179 181,133.5C 181.333,132.167 181.667,130.833 182,129.5C 183.085,134.437 183.752,139.437 184,144.5C 184.779,147.097 185.279,147.097 185.5,144.5C 187.877,146.03 187.877,147.53 185.5,149C 187.602,150.733 187.935,152.733 186.5,155C 187.544,160.131 188.544,165.298 189.5,170.5C 189.167,173.167 188.833,175.833 188.5,178.5C 190.632,180.395 190.966,182.562 189.5,185C 190.84,188.999 191.173,192.999 190.5,197C 191.22,200.152 191.887,203.319 192.5,206.5C 192.065,210.762 192.065,215.095 192.5,219.5C 192.167,219.5 191.833,219.5 191.5,219.5C 190.124,216.606 188.957,213.606 188,210.5C 184.066,180.796 179.899,151.129 175.5,121.5C 163.189,120.32 150.856,119.32 138.5,118.5C 134.803,117.992 131.136,117.326 127.5,116.5C 127.33,115.178 127.663,114.011 128.5,113C 132.939,112.145 137.273,111.145 141.5,110C 132.044,108.302 122.711,108.136 113.5,109.5C 112.167,108.5 112.167,107.5 113.5,106.5 Z"/></g>
<g><path style="opacity:1" fill="#ce526f" d="M 138.5,118.5 C 144.913,119.145 150.413,121.812 155,126.5C 162.032,139.106 166.198,152.439 167.5,166.5C 166.365,172.072 164.531,177.406 162,182.5C 158.651,185.682 155.484,189.015 152.5,192.5C 146.413,193.924 140.247,195.924 134,198.5C 129.224,198.21 124.057,198.043 118.5,198C 111.787,196.458 105.12,194.791 98.5,193C 95.2409,191.789 92.4075,189.956 90,187.5C 88.3357,179.924 86.169,172.591 83.5,165.5C 84.6715,164.655 86.0048,163.989 87.5,163.5C 87.9167,167.835 88.4167,172.168 89,176.5C 89.9025,177.701 91.0692,178.535 92.5,179C 112.607,184.268 129.441,179.101 143,163.5C 150.122,149.799 149.455,136.465 141,123.5C 139.421,121.959 137.587,120.792 135.5,120C 128.563,118.712 121.563,118.212 114.5,118.5C 113.841,115.545 113.508,112.545 113.5,109.5C 122.711,108.136 132.044,108.302 141.5,110C 137.273,111.145 132.939,112.145 128.5,113C 127.663,114.011 127.33,115.178 127.5,116.5C 131.136,117.326 134.803,117.992 138.5,118.5 Z"/></g>
<g><path style="opacity:1" fill="#d45a78" d="M 138.5,118.5 C 150.856,119.32 163.189,120.32 175.5,121.5C 179.899,151.129 184.066,180.796 188,210.5C 188.957,213.606 190.124,216.606 191.5,219.5C 155.875,220.32 120.208,220.82 84.5,221C 83.0953,222.269 81.4286,222.769 79.5,222.5C 78.8826,222.389 78.3826,222.056 78,221.5C 77.8333,220 77.6667,218.5 77.5,217C 77.5287,211.247 77.5287,205.414 77.5,199.5C 78.0448,195.306 78.7114,191.14 79.5,187C 78.6728,184.271 79.0062,181.604 80.5,179C 79.7343,175.582 79.7343,172.082 80.5,168.5C 80.5,166.5 81.5,165.5 83.5,165.5C 86.169,172.591 88.3357,179.924 90,187.5C 92.4075,189.956 95.2409,191.789 98.5,193C 105.12,194.791 111.787,196.458 118.5,198C 124.057,198.043 129.224,198.21 134,198.5C 140.247,195.924 146.413,193.924 152.5,192.5C 155.484,189.015 158.651,185.682 162,182.5C 164.531,177.406 166.365,172.072 167.5,166.5C 166.198,152.439 162.032,139.106 155,126.5C 150.413,121.812 144.913,119.145 138.5,118.5 Z"/></g>
<g><path style="opacity:1" fill="#af334d" d="M 114.5,125.5 C 118.426,127.049 122.259,128.715 126,130.5C 126.414,130.043 126.914,129.709 127.5,129.5C 130.113,130.803 132.613,131.469 135,131.5C 138.063,140.828 137.063,149.828 132,158.5C 119.81,171.378 105.644,173.878 89.5,166C 88.7476,165.329 88.4142,164.496 88.5,163.5C 98.6092,158.057 105.942,150.057 110.5,139.5C 112.437,135.02 113.771,130.353 114.5,125.5 Z"/></g>
<g><path style="opacity:1" fill="#9064be" d="M 75.5,74.5 C 94.1517,78.7261 106.818,89.3928 113.5,106.5C 112.167,107.5 112.167,108.5 113.5,109.5C 113.508,112.545 113.841,115.545 114.5,118.5C 114.5,120.833 114.5,123.167 114.5,125.5C 113.771,130.353 112.437,135.02 110.5,139.5C 109.25,139.577 108.417,140.244 108,141.5C 107.675,139.447 108.009,137.447 109,135.5C 110.755,124.527 109.088,114.193 104,104.5C 109.97,120.987 107.304,135.987 96,149.5C 85.8455,158.329 74.0122,162.162 60.5,161C 67.7282,162.263 75.0615,162.93 82.5,163C 72.1603,167.08 62.9937,167.58 55,164.5C 52.9674,164.506 51.134,164.839 49.5,165.5C 39.2021,160.868 31.5354,153.534 26.5,143.5C 27.2163,135.664 27.383,127.664 27,119.5C 27.7293,114.979 29.0626,110.646 31,106.5C 31.6543,105.304 32.1543,105.304 32.5,106.5C 28.6728,116.416 28.5062,126.416 32,136.5C 32.8893,137.888 33.3893,137.722 33.5,136C 30.6999,129.412 30.8666,122.912 34,116.5C 35.4277,119.39 36.9277,122.056 38.5,124.5C 47.1667,124.5 55.8333,124.5 64.5,124.5C 64.5,132.833 64.5,141.167 64.5,149.5C 67.6248,150.479 70.9581,150.813 74.5,150.5C 74.5,142.167 74.5,133.833 74.5,125.5C 83.1667,125.5 91.8333,125.5 100.5,125.5C 101.099,122.052 100.099,119.386 97.5,117.5C 89.3501,116.507 81.0168,116.174 72.5,116.5C 72.5,107.833 72.5,99.1667 72.5,90.5C 72.9382,90.5654 73.2716,90.3988 73.5,90C 72.8333,89 72.1667,88 71.5,87C 74.5,86.6667 77.5,86.3333 80.5,86C 73.9816,84.2238 67.315,83.2238 60.5,83C 62.2852,81.8372 64.2852,81.1705 66.5,81C 71.8333,80.6667 77.1667,80.3333 82.5,80C 80.8333,79.6667 79.1667,79.3333 77.5,79C 77.8333,78.6667 78.1667,78.3333 78.5,78C 76.9371,77.2411 75.9371,76.0744 75.5,74.5 Z"/></g>
<g><path style="opacity:1" fill="#c0435e" d="M 114.5,118.5 C 121.563,118.212 128.563,118.712 135.5,120C 137.587,120.792 139.421,121.959 141,123.5C 149.455,136.465 150.122,149.799 143,163.5C 129.441,179.101 112.607,184.268 92.5,179C 91.0692,178.535 89.9025,177.701 89,176.5C 88.4167,172.168 87.9167,167.835 87.5,163.5C 87.8333,163.5 88.1667,163.5 88.5,163.5C 88.4142,164.496 88.7476,165.329 89.5,166C 105.644,173.878 119.81,171.378 132,158.5C 137.063,149.828 138.063,140.828 135,131.5C 132.613,131.469 130.113,130.803 127.5,129.5C 126.914,129.709 126.414,130.043 126,130.5C 122.259,128.715 118.426,127.049 114.5,125.5C 114.5,123.167 114.5,120.833 114.5,118.5 Z"/></g>
<g><path style="opacity:1" fill="#6c449d" d="M 110.5,139.5 C 105.942,150.057 98.6092,158.057 88.5,163.5C 88.1667,163.5 87.8333,163.5 87.5,163.5C 86.0048,163.989 84.6715,164.655 83.5,165.5C 81.5,165.5 80.5,166.5 80.5,168.5C 78.5766,167.882 76.5766,168.215 74.5,169.5C 70.5,169.5 66.5,169.5 62.5,169.5C 61.2954,167.862 59.9621,167.529 58.5,168.5C 57.2954,166.862 55.9621,166.529 54.5,167.5C 52.9246,166.544 51.258,165.877 49.5,165.5C 51.134,164.839 52.9674,164.506 55,164.5C 62.9937,167.58 72.1603,167.08 82.5,163C 75.0615,162.93 67.7282,162.263 60.5,161C 74.0122,162.162 85.8455,158.329 96,149.5C 107.304,135.987 109.97,120.987 104,104.5C 109.088,114.193 110.755,124.527 109,135.5C 108.009,137.447 107.675,139.447 108,141.5C 108.417,140.244 109.25,139.577 110.5,139.5 Z"/></g>
<g><path style="opacity:1" fill="#643a76" d="M 97.5,117.5 C 100.099,119.386 101.099,122.052 100.5,125.5C 91.8333,125.5 83.1667,125.5 74.5,125.5C 74.5,133.833 74.5,142.167 74.5,150.5C 70.9581,150.813 67.6248,150.479 64.5,149.5C 66.8333,149.5 69.1667,149.5 71.5,149.5C 71.5,141.167 71.5,132.833 71.5,124.5C 80.1667,124.5 88.8333,124.5 97.5,124.5C 97.5,122.167 97.5,119.833 97.5,117.5 Z"/></g>
<g><path style="opacity:1" fill="#ac3349" d="M 191.5,219.5 C 191.833,219.5 192.167,219.5 192.5,219.5C 191.833,220.5 191.167,221.5 190.5,222.5C 155.165,222.333 119.832,222.5 84.5,223C 83.944,223.383 83.6107,223.883 83.5,224.5C 81.6203,224.771 80.287,224.104 79.5,222.5C 81.4286,222.769 83.0953,222.269 84.5,221C 120.208,220.82 155.875,220.32 191.5,219.5 Z"/></g>
<g><path style="opacity:0.996" fill="#681621" d="M 190.5,222.5 C 190.5,222.833 190.5,223.167 190.5,223.5C 154.851,224.46 119.184,224.794 83.5,224.5C 83.6107,223.883 83.944,223.383 84.5,223C 119.832,222.5 155.165,222.333 190.5,222.5 Z"/></g>
<g><path style="opacity:0.653" fill="#3e171a" d="M 190.5,223.5 C 188.836,224.999 186.836,225.999 184.5,226.5C 151.327,226.496 118.16,226.496 85,226.5C 83.9701,226.164 83.4701,225.497 83.5,224.5C 119.184,224.794 154.851,224.46 190.5,223.5 Z"/></g>
</svg>
